<mxfile host="app.diagrams.net" agent="Mozilla/5.0 (X11; Linux x86_64) AppleWebKit/537.36 (KHTML, like Gecko) Chrome/138.0.0.0 Safari/537.36" version="28.0.6">
  <diagram name="Página-1" id="AO02KZSBQWouesVhpJy1">
    <mxGraphModel dx="951" dy="410" grid="1" gridSize="10" guides="1" tooltips="1" connect="1" arrows="1" fold="1" page="1" pageScale="1" pageWidth="827" pageHeight="1169" math="0" shadow="0">
      <root>
        <mxCell id="0" />
        <mxCell id="1" parent="0" />
        <mxCell id="rm-aW26yA5yjyjfgTr3B-1" value="emails (textos)        labels (1 o 0)&#xa;     │                        │&#xa;     └─────── train_test_split ───────┬──→ X_train, y_train (60%)&#xa;                                      └──→ X_test, y_test (40%)" style="text;whiteSpace=wrap;fillColor=#6666FF;" vertex="1" parent="1">
          <mxGeometry x="210" y="40" width="420" height="80" as="geometry" />
        </mxCell>
        <mxCell id="rm-aW26yA5yjyjfgTr3B-3" style="edgeStyle=orthogonalEdgeStyle;rounded=0;orthogonalLoop=1;jettySize=auto;html=1;" edge="1" parent="1">
          <mxGeometry relative="1" as="geometry">
            <mxPoint x="330" y="290" as="targetPoint" />
            <mxPoint x="290" y="200" as="sourcePoint" />
          </mxGeometry>
        </mxCell>
        <mxCell id="rm-aW26yA5yjyjfgTr3B-2" value="Emails" style="rounded=0;whiteSpace=wrap;html=1;" vertex="1" parent="1">
          <mxGeometry x="160" y="170" width="120" height="60" as="geometry" />
        </mxCell>
        <mxCell id="rm-aW26yA5yjyjfgTr3B-5" style="edgeStyle=orthogonalEdgeStyle;rounded=0;orthogonalLoop=1;jettySize=auto;html=1;" edge="1" parent="1" source="rm-aW26yA5yjyjfgTr3B-4">
          <mxGeometry relative="1" as="geometry">
            <mxPoint x="460" y="320" as="targetPoint" />
          </mxGeometry>
        </mxCell>
        <mxCell id="rm-aW26yA5yjyjfgTr3B-6" style="edgeStyle=orthogonalEdgeStyle;rounded=0;orthogonalLoop=1;jettySize=auto;html=1;" edge="1" parent="1" source="rm-aW26yA5yjyjfgTr3B-4" target="rm-aW26yA5yjyjfgTr3B-7">
          <mxGeometry relative="1" as="geometry">
            <mxPoint x="330" y="400" as="targetPoint" />
          </mxGeometry>
        </mxCell>
        <mxCell id="rm-aW26yA5yjyjfgTr3B-9" style="edgeStyle=orthogonalEdgeStyle;rounded=0;orthogonalLoop=1;jettySize=auto;html=1;" edge="1" parent="1" source="rm-aW26yA5yjyjfgTr3B-4">
          <mxGeometry relative="1" as="geometry">
            <mxPoint x="190" y="320" as="targetPoint" />
          </mxGeometry>
        </mxCell>
        <mxCell id="rm-aW26yA5yjyjfgTr3B-13" style="edgeStyle=orthogonalEdgeStyle;rounded=0;orthogonalLoop=1;jettySize=auto;html=1;entryX=1;entryY=0.5;entryDx=0;entryDy=0;" edge="1" parent="1" source="rm-aW26yA5yjyjfgTr3B-4" target="rm-aW26yA5yjyjfgTr3B-10">
          <mxGeometry relative="1" as="geometry" />
        </mxCell>
        <mxCell id="rm-aW26yA5yjyjfgTr3B-4" value="&lt;span style=&quot;text-align: left;&quot;&gt;&amp;nbsp;train_test_split&amp;nbsp;&lt;/span&gt;" style="rounded=1;whiteSpace=wrap;html=1;" vertex="1" parent="1">
          <mxGeometry x="270" y="290" width="120" height="60" as="geometry" />
        </mxCell>
        <mxCell id="rm-aW26yA5yjyjfgTr3B-7" value="&lt;span style=&quot;text-align: left;&quot;&gt;&amp;nbsp;X_test, y_test (40%)&lt;/span&gt;" style="rounded=0;whiteSpace=wrap;html=1;" vertex="1" parent="1">
          <mxGeometry x="270" y="410" width="120" height="60" as="geometry" />
        </mxCell>
        <mxCell id="rm-aW26yA5yjyjfgTr3B-8" value="&lt;span style=&quot;text-align: left;&quot;&gt;X_train, y_train (60%)&lt;/span&gt;" style="rounded=0;whiteSpace=wrap;html=1;" vertex="1" parent="1">
          <mxGeometry x="464" y="290" width="120" height="60" as="geometry" />
        </mxCell>
        <mxCell id="rm-aW26yA5yjyjfgTr3B-11" style="edgeStyle=orthogonalEdgeStyle;rounded=0;orthogonalLoop=1;jettySize=auto;html=1;entryX=0;entryY=0.5;entryDx=0;entryDy=0;" edge="1" parent="1" source="rm-aW26yA5yjyjfgTr3B-10" target="rm-aW26yA5yjyjfgTr3B-4">
          <mxGeometry relative="1" as="geometry" />
        </mxCell>
        <mxCell id="rm-aW26yA5yjyjfgTr3B-12" value="Etiquetado" style="edgeLabel;html=1;align=center;verticalAlign=middle;resizable=0;points=[];" vertex="1" connectable="0" parent="rm-aW26yA5yjyjfgTr3B-11">
          <mxGeometry x="0.0464" y="-1" relative="1" as="geometry">
            <mxPoint as="offset" />
          </mxGeometry>
        </mxCell>
        <mxCell id="rm-aW26yA5yjyjfgTr3B-10" value="Labels(0 o 1)" style="rounded=1;whiteSpace=wrap;html=1;" vertex="1" parent="1">
          <mxGeometry x="40" y="290" width="120" height="60" as="geometry" />
        </mxCell>
      </root>
    </mxGraphModel>
  </diagram>
</mxfile>
